<?xml version="1.0" encoding="UTF-8" standalone="no"?>
<!-- Created with Inkscape (http://www.inkscape.org/) -->

<svg
   id="svg7362"
   sodipodi:docname="logo.svg"
   viewBox="0 0 428.96 600"
   version="1.1"
   inkscape:version="1.2.2 (b0a8486541, 2022-12-01)"
   width="428.95999"
   height="600"
   xmlns:inkscape="http://www.inkscape.org/namespaces/inkscape"
   xmlns:sodipodi="http://sodipodi.sourceforge.net/DTD/sodipodi-0.dtd"
   xmlns="http://www.w3.org/2000/svg"
   xmlns:svg="http://www.w3.org/2000/svg"
   xmlns:rdf="http://www.w3.org/1999/02/22-rdf-syntax-ns#"
   xmlns:cc="http://creativecommons.org/ns#"
   xmlns:dc="http://purl.org/dc/elements/1.1/">
  <defs
     id="defs8">
    <rect
       x="71.428571"
       y="80"
       width="325.71429"
       height="205.71429"
       id="rect5157" />
    <rect
       x="-2.8571429"
       y="108.57143"
       width="220"
       height="234.28571"
       id="rect392" />
  </defs>
  <sodipodi:namedview
     id="base"
     bordercolor="#666666"
     inkscape:pageshadow="2"
     inkscape:window-y="-8"
     fit-margin-left="0"
     pagecolor="#ffffff"
     fit-margin-top="0"
     inkscape:window-maximized="1"
     inkscape:zoom="0.49497475"
     inkscape:window-x="-8"
     inkscape:window-height="1017"
     showgrid="false"
     borderopacity="1.0"
     inkscape:current-layer="layer1"
     inkscape:cx="-554.57375"
     inkscape:cy="412.14224"
     fit-margin-right="0"
     fit-margin-bottom="0"
     inkscape:window-width="1920"
     inkscape:pageopacity="0.0"
     inkscape:document-units="px"
     inkscape:showpageshadow="2"
     inkscape:pagecheckerboard="0"
     inkscape:deskcolor="#d1d1d1" />
  <g
     id="layer1"
     inkscape:label="Layer 1"
     inkscape:groupmode="layer"
     transform="translate(-212.92,-13.302)">
    <path
       id="path7062"
       style="opacity:1;fill:#0132ff;stroke:#000000;fill-opacity:1"
       inkscape:connector-curvature="0"
       d="m 347.149,13.302 c -23.811,0 -43.025,19.429 -43.025,43.239 0,23.811 19.215,43.025 43.025,43.025 23.811,6.85e-4 43.239,-19.214 43.239,-43.025 0,-23.811 -19.429,-43.239 -43.239,-43.239 z m -67.214,110.24 c -22.317,0 -40.029,17.081 -40.029,38.103 v 174.46 c 0,26.668 38.53,26.668 38.53,0 v -137.85 h 13.7 v 393.01 c 0,12.028 10.778,22.047 23.546,22.047 12.768,0 22.476,-10.021 22.476,-22.047 v -216.41 h 17.981 v 216.41 c 0,12.027 9.9218,22.047 22.69,22.047 12.7682,0 23.546,-10.019 23.546,-22.047 v -393.01 h 13.486 v 137.85 c 0,26.668 38.53,26.668 38.53,0 v -174.46 c 0,-21.022 -17.712,-38.103 -40.029,-38.103 h -134.43 z" />
    <path
       id="path7062-9"
       style="fill:#ececec;stroke:#000000"
       inkscape:connector-curvature="0"
       d="m 427.652,13.802 c -23.811,0 -43.025,19.429 -43.025,43.239 0,23.811 19.215,43.025 43.025,43.025 23.811,6.8e-4 43.239,-19.214 43.239,-43.025 0,-23.811 -19.429,-43.239 -43.239,-43.239 z m -67.214,110.24 c -22.317,0 -40.029,17.081 -40.029,38.103 v 174.46 c 0,26.668 38.53,26.668 38.53,0 v -137.85 h 13.7 v 393.01 c 0,12.028 10.778,22.047 23.546,22.047 12.768,0 22.476,-10.021 22.476,-22.047 v -216.41 h 17.981 v 216.41 c 0,12.027 9.9218,22.047 22.69,22.047 12.7682,0 23.546,-10.019 23.546,-22.047 v -393.01 h 13.486 v 137.85 c 0,26.668 38.53,26.668 38.53,0 v -174.46 c 0,-21.022 -17.712,-38.103 -40.029,-38.103 h -134.43 z" />
    <path
       id="path7062-9-5"
       style="fill:#ff0000;stroke:#000000;fill-opacity:1"
       inkscape:connector-curvature="0"
       d="m 507.652,13.802 c -23.811,0 -43.025,19.429 -43.025,43.239 0,23.811 19.215,43.025 43.025,43.025 23.811,6.8e-4 43.239,-19.214 43.239,-43.025 0,-23.811 -19.429,-43.239 -43.239,-43.239 z m -67.214,110.24 c -22.317,0 -40.029,17.081 -40.029,38.103 v 174.46 c 0,26.668 38.53,26.668 38.53,0 v -137.85 h 13.7 v 393.01 c 0,12.028 10.778,22.047 23.546,22.047 12.768,0 22.476,-10.021 22.476,-22.047 v -216.41 h 17.981 v 216.41 c 0,12.027 9.9218,22.047 22.69,22.047 12.7682,0 23.546,-10.019 23.546,-22.047 v -393.01 h 13.486 v 137.85 c 0,26.668 38.53,26.668 38.53,0 v -174.46 c 0,-21.022 -17.712,-38.103 -40.029,-38.103 h -134.43 z" />
    <text
       xml:space="preserve"
       transform="translate(212.92,13.302)"
       id="text5155"
       style="font-size:40px;line-height:25px;font-family:sans-serif;letter-spacing:0px;word-spacing:0px;white-space:pre;shape-inside:url(#rect5157);display:inline" />
  </g>
  <metadata
     id="metadata5">
    <rdf:RDF>
      <cc:Work>
        <dc:format>image/svg+xml</dc:format>
        <dc:type
           rdf:resource="http://purl.org/dc/dcmitype/StillImage" />
        <cc:license
           rdf:resource="http://creativecommons.org/publicdomain/zero/1.0/" />
        <dc:publisher>
          <cc:Agent
             rdf:about="http://openclipart.org/">
            <dc:title>Openclipart</dc:title>
          </cc:Agent>
        </dc:publisher>
        <dc:title>Stickman</dc:title>
        <dc:date>2011-07-24T12:19:18</dc:date>
        <dc:description>The symbolic image of man that is used in signs</dc:description>
        <dc:source>https://openclipart.org/detail/151435/stickman-by-rones</dc:source>
        <dc:creator>
          <cc:Agent>
            <dc:title>rones</dc:title>
          </cc:Agent>
        </dc:creator>
        <dc:subject>
          <rdf:Bag>
            <rdf:li>black</rdf:li>
            <rdf:li>man</rdf:li>
            <rdf:li>sign</rdf:li>
            <rdf:li>stickman</rdf:li>
            <rdf:li>symbol</rdf:li>
            <rdf:li>?????????</rdf:li>
          </rdf:Bag>
        </dc:subject>
      </cc:Work>
      <cc:License
         rdf:about="http://creativecommons.org/publicdomain/zero/1.0/">
        <cc:permits
           rdf:resource="http://creativecommons.org/ns#Reproduction" />
        <cc:permits
           rdf:resource="http://creativecommons.org/ns#Distribution" />
        <cc:permits
           rdf:resource="http://creativecommons.org/ns#DerivativeWorks" />
      </cc:License>
    </rdf:RDF>
  </metadata>
</svg>
